<svg width="571" height="102" viewBox="0 0 571 102" fill="none" xmlns="http://www.w3.org/2000/svg">
<path d="M481.242 24.6143C483.639 24.6143 486.393 24.9062 489.503 25.4893C492.645 26.04 495.674 27.1901 498.59 28.9395C501.538 30.6888 503.984 33.3292 505.928 36.8604C507.871 40.3915 508.844 45.1214 508.844 51.0498V100.228H497.375V90.1201H496.792C496.014 91.7399 494.718 93.4728 492.904 95.3193C491.09 97.1659 488.677 98.7374 485.664 100.033C482.651 101.329 478.974 101.978 474.633 101.978C469.903 101.978 465.61 101.086 461.755 99.3047C457.9 97.4905 454.839 94.882 452.571 91.4805C450.304 88.0465 449.169 83.8995 449.169 79.04C449.169 74.7641 450.012 71.298 451.696 68.6416C453.381 65.9527 455.633 63.8468 458.451 62.3242C461.27 60.8016 464.38 59.667 467.781 58.9219C471.215 58.1444 474.666 57.5297 478.132 57.0762C482.667 56.493 486.345 56.0552 489.163 55.7637C492.014 55.4397 494.087 54.9052 495.383 54.1602C496.711 53.415 497.375 52.119 497.375 50.2725V49.8838C497.375 45.0891 496.063 41.3635 493.438 38.707C490.847 36.0508 486.911 34.7227 481.631 34.7227C476.156 34.7227 471.863 35.921 468.753 38.3184C465.643 40.7157 463.456 43.2748 462.192 45.9961L451.308 42.1084C453.251 37.573 455.843 34.0415 459.083 31.5146C462.355 28.9555 465.918 27.1742 469.773 26.1699C473.661 25.1332 477.484 24.6143 481.242 24.6143ZM235.406 24.6143C239.294 24.6143 243.133 25.2627 246.924 26.5586C250.714 27.8545 254.164 29.9604 257.274 32.876C260.384 35.7592 262.862 39.5818 264.709 44.3438C266.556 49.106 267.479 54.9703 267.479 61.9355V66.7949H213.275C213.44 71.7607 214.401 76.021 216.163 79.5752C218.139 83.4627 220.877 86.4268 224.376 88.4678C227.875 90.4762 231.941 91.4805 236.573 91.4805C239.586 91.4804 242.307 91.059 244.736 90.2168C247.198 89.3421 249.321 88.047 251.103 86.3301C252.884 84.5807 254.262 82.41 255.233 79.8184L266.312 82.9277C265.146 86.6856 263.186 89.99 260.433 92.8408C257.679 95.6593 254.277 97.8628 250.228 99.4502C246.178 101.005 241.627 101.782 236.573 101.782C229.381 101.782 223.177 100.195 217.961 97.0205C212.778 93.8133 208.776 89.3425 205.958 83.6084C203.172 77.8419 201.779 71.1357 201.779 63.4902C201.779 55.8449 203.172 49.1066 205.958 43.2754C208.776 37.4118 212.696 32.8433 217.718 29.5713C222.772 26.2669 228.668 24.6143 235.406 24.6143ZM304.3 24.6143C311.038 24.6143 316.934 26.2185 321.988 29.4258C327.074 32.633 331.027 37.1357 333.846 42.9346C336.697 48.7335 338.122 55.5208 338.122 63.2959C338.122 71.006 336.696 77.7443 333.846 83.5107C331.027 89.2773 327.074 93.7644 321.988 96.9717C316.934 100.179 311.038 101.782 304.3 101.782C297.561 101.782 291.649 100.179 286.562 96.9717C281.509 93.7645 277.557 89.2771 274.706 83.5107C271.888 77.7443 270.479 71.0061 270.479 63.2959C270.479 55.5208 271.888 48.7335 274.706 42.9346C277.557 37.1359 281.509 32.633 286.562 29.4258C291.649 26.2186 297.561 24.6143 304.3 24.6143ZM530.297 80.79C530.297 84.4183 530.702 86.9611 531.512 88.4189C532.322 89.8768 533.99 90.5736 536.517 90.5088C537.877 90.444 538.881 90.3464 539.529 90.2168C540.21 90.0548 540.825 89.8934 541.376 89.7314L543.709 99.6445C542.705 99.9361 541.441 100.195 539.918 100.422C538.395 100.681 536.808 100.811 535.156 100.811C529.714 100.811 525.631 99.3203 522.91 96.3398C520.189 93.3595 518.828 89.2131 518.828 83.9004V0.706055H530.297V80.79ZM556.767 80.79C556.767 84.4181 557.172 86.9611 557.981 88.4189C558.791 89.8768 560.46 90.5736 562.987 90.5088C564.348 90.444 565.352 90.3464 566 90.2168C566.68 90.0548 567.296 89.8934 567.847 89.7314L570.179 99.6445C569.174 99.9361 567.911 100.195 566.389 100.422C564.866 100.681 563.278 100.811 561.626 100.811C556.184 100.81 552.102 99.3202 549.381 96.3398C546.66 93.3595 545.299 89.2132 545.299 83.9004V0.706055H556.767V80.79ZM60.6963 0.227539C82.7876 0.227539 100.696 18.1362 100.696 40.2275V100.229H40.6963L39.6641 100.215C37.6471 100.164 35.6675 99.9621 33.7354 99.623C33.6659 99.6109 33.5967 99.5975 33.5273 99.585C33.2665 99.5378 33.0062 99.4897 32.7471 99.4375C32.7222 99.4325 32.6977 99.426 32.6729 99.4209C32.3951 99.3643 32.1184 99.3054 31.8428 99.2432C31.704 99.2118 31.5659 99.1783 31.4277 99.1455C31.2477 99.1028 31.0677 99.0608 30.8887 99.0156C30.7826 98.9889 30.677 98.9602 30.5713 98.9326C30.3575 98.8768 30.144 98.8209 29.9316 98.7617C29.8589 98.7414 29.7865 98.7199 29.7139 98.6992C29.4773 98.6318 29.2416 98.5628 29.0068 98.4912C28.9262 98.4666 28.846 98.4411 28.7656 98.416C28.5415 98.3461 28.3181 98.2749 28.0957 98.2012C27.9958 98.168 27.8964 98.1335 27.7969 98.0996C27.5987 98.0321 27.4009 97.9641 27.2041 97.8936C27.0926 97.8536 26.9821 97.8114 26.8711 97.7705C26.6835 97.7014 26.4958 97.6333 26.3096 97.5615C26.164 97.5054 26.0197 97.4464 25.875 97.3887C25.7378 97.3339 25.6003 97.2799 25.4639 97.2236C25.3141 97.1619 25.1655 97.0977 25.0166 97.0342C24.8604 96.9675 24.704 96.9016 24.5488 96.833C24.4362 96.7832 24.324 96.7324 24.2119 96.6816C24.0316 96.6 23.8517 96.5178 23.6729 96.4336C23.5764 96.3882 23.4808 96.3411 23.3848 96.2949C23.1886 96.2006 22.9932 96.1052 22.7988 96.0078C22.7149 95.9657 22.6315 95.9225 22.5479 95.8799C22.3614 95.7848 22.175 95.6897 21.9902 95.5918C21.8737 95.53 21.7584 95.4662 21.6426 95.4033C21.476 95.3129 21.3096 95.2226 21.1445 95.1299C21.0513 95.0776 20.959 95.0238 20.8662 94.9707C20.6832 94.866 20.5005 94.7608 20.3193 94.6533C20.2222 94.5957 20.1259 94.5369 20.0293 94.4785C19.8633 94.3781 19.6976 94.2775 19.5332 94.1748C19.4269 94.1084 19.3214 94.041 19.2158 93.9736C19.0564 93.8719 18.8972 93.7699 18.7393 93.666C18.6257 93.5913 18.5131 93.5153 18.4004 93.4395C18.259 93.3443 18.1177 93.2492 17.9775 93.1523C17.8593 93.0706 17.7423 92.9873 17.625 92.9043C17.4849 92.8052 17.3448 92.7063 17.2061 92.6055C17.0944 92.5243 16.9838 92.4417 16.873 92.3594C16.7187 92.2447 16.5648 92.1295 16.4121 92.0127C16.3323 91.9516 16.2532 91.8898 16.1738 91.8281C16.0096 91.7005 15.8458 91.5725 15.6836 91.4424C15.5933 91.37 15.5037 91.2968 15.4141 91.2236C15.2604 91.0981 15.1078 90.9715 14.9561 90.8438C14.8714 90.7725 14.7872 90.7008 14.7031 90.6289C14.5481 90.4963 14.3941 90.3625 14.2412 90.2275C14.1494 90.1465 14.0579 90.0652 13.9668 89.9834C13.8431 89.8722 13.72 89.7602 13.5977 89.6475C13.4818 89.5407 13.3665 89.4333 13.252 89.3252C13.132 89.2121 13.013 89.098 12.8945 88.9834C12.7954 88.8875 12.6968 88.7912 12.5986 88.6943C12.4658 88.5632 12.3341 88.4308 12.2031 88.2979C12.1244 88.218 12.0458 88.1381 11.9678 88.0576C11.8263 87.9116 11.6861 87.7644 11.5469 87.6162C11.4658 87.5299 11.385 87.4434 11.3047 87.3564C11.1834 87.2251 11.0629 87.0929 10.9434 86.96C10.8379 86.8427 10.733 86.725 10.6289 86.6064C10.5382 86.5031 10.4481 86.3992 10.3584 86.2949C10.2434 86.1612 10.1289 86.0269 10.0156 85.8916C9.92567 85.7842 9.83689 85.6758 9.74805 85.5674C9.64946 85.4471 9.55131 85.3265 9.4541 85.2051C9.34215 85.0652 9.2312 84.9246 9.12109 84.7832C9.04197 84.6816 8.96293 84.5799 8.88477 84.4775C8.77108 84.3286 8.65851 84.1789 8.54688 84.0283C8.47324 83.929 8.39988 83.8295 8.32715 83.7295C8.21819 83.5797 8.11082 83.4287 8.00391 83.2773C7.92477 83.1653 7.84558 83.0533 7.76758 82.9404C7.67074 82.8003 7.57556 82.659 7.48047 82.5176C7.40426 82.4042 7.328 82.2909 7.25293 82.1768C7.14093 82.0065 7.03035 81.8352 6.9209 81.6631C6.8675 81.5791 6.81353 81.4955 6.76074 81.4111C6.64765 81.2303 6.53703 81.0479 6.42676 80.8652C6.37109 80.773 6.31568 80.6806 6.26074 80.5879C6.16002 80.4179 6.06115 80.2468 5.96289 80.0752C5.90421 79.9727 5.8449 79.8706 5.78711 79.7676C5.68487 79.5853 5.5848 79.4018 5.48535 79.2178C5.43682 79.128 5.38771 79.0385 5.33984 78.9482C5.23883 78.7579 5.14001 78.5662 5.04199 78.374C4.9959 78.2836 4.94972 78.1933 4.9043 78.1025C4.80903 77.9122 4.71632 77.7204 4.62402 77.5283C4.57882 77.4343 4.53276 77.3406 4.48828 77.2461C4.40685 77.0731 4.32804 76.8989 4.24902 76.7246C4.19358 76.6023 4.13725 76.4804 4.08301 76.3574C3.99795 76.1646 3.9151 75.9707 3.83301 75.7764C3.79698 75.6911 3.76006 75.6061 3.72461 75.5205C3.64201 75.321 3.56285 75.12 3.4834 74.9189C3.44185 74.8138 3.39908 74.7091 3.3584 74.6035C3.28187 74.4049 3.2082 74.205 3.13477 74.0049C3.10012 73.9105 3.06423 73.8164 3.03027 73.7217C2.96258 73.5327 2.89793 73.3426 2.83301 73.1523C2.79247 73.0335 2.75039 72.9152 2.71094 72.7959C2.63328 72.5611 2.55973 72.3246 2.48633 72.0879C2.466 72.0223 2.44383 71.9573 2.42383 71.8916C2.34829 71.6434 2.27687 71.3937 2.20605 71.1436C2.19119 71.091 2.17481 71.0389 2.16016 70.9863C2.10135 70.7752 2.04565 70.5631 1.99023 70.3506C1.96138 70.2399 1.93125 70.1296 1.90332 70.0186C1.85005 69.8068 1.80085 69.5939 1.75098 69.3809C1.72826 69.2838 1.70365 69.1872 1.68164 69.0898C1.62773 68.8515 1.57795 68.612 1.52832 68.3721C1.51 68.2835 1.49039 68.1952 1.47266 68.1064C1.43033 67.8946 1.3915 67.6818 1.35254 67.4688C1.33432 67.3691 1.31435 67.2698 1.29688 67.1699C0.959812 65.2438 0.759909 63.2702 0.708984 61.2598L0.696289 60.2275V0.227539H60.6963ZM180.836 79.04H181.809V0.706055H193.665V100.228H182.003L127.771 22.0879H126.799V100.228H114.748V0.706055H126.41L180.836 79.04ZM419.905 24.6143C426.579 24.6144 432.037 26.7048 436.281 30.8838C440.525 35.0305 442.647 41.4933 442.647 50.2725V100.228H431.179V50.2725C431.179 44.7651 429.672 40.8288 426.659 38.4639C423.646 36.0991 420.099 34.9171 416.018 34.917C410.77 34.917 406.704 36.504 403.82 39.6787C400.937 42.8211 399.495 46.8059 399.495 51.6328V100.228H387.832V49.1064C387.832 44.8625 386.456 41.4442 383.702 38.8525C380.948 36.2284 377.401 34.917 373.06 34.917C370.079 34.917 367.293 35.7105 364.701 37.2979C362.142 38.8852 360.069 41.088 358.481 43.9062C356.926 46.6923 356.148 49.9164 356.148 53.5771V100.228H344.681V25.5869H355.76V37.249H356.732C358.287 33.2646 360.798 30.1707 364.264 27.9678C367.73 25.7324 371.893 24.6143 376.753 24.6143C381.677 24.6143 385.775 25.7325 389.047 27.9678C392.351 30.1707 394.927 33.2644 396.773 37.249H397.552C399.463 33.394 402.33 30.3321 406.152 28.0645C409.975 25.7643 414.56 24.6143 419.905 24.6143ZM497.375 62.7129C496.889 63.296 495.82 63.8305 494.168 64.3164C492.548 64.7699 490.669 65.1749 488.531 65.5312C486.425 65.8552 484.368 66.1471 482.359 66.4062C480.383 66.633 478.78 66.8273 477.549 66.9893C474.568 67.378 471.782 68.0091 469.19 68.8838C466.631 69.7261 464.557 71.0066 462.97 72.7236C461.415 74.4082 460.638 76.7086 460.638 79.624C460.638 83.6085 462.112 86.6212 465.06 88.6621C468.04 90.6706 471.814 91.6747 476.382 91.6748C480.917 91.6748 484.741 90.7838 487.851 89.002C490.993 87.2202 493.358 84.92 494.945 82.1016C496.565 79.2832 497.375 76.3189 497.375 73.209V62.7129ZM304.3 34.917C299.181 34.917 294.969 36.2449 291.665 38.9014C288.361 41.5579 285.915 45.041 284.327 49.3496C282.74 53.6582 281.946 58.3071 281.946 63.2959C281.946 68.2849 282.74 72.918 284.327 77.1943C285.915 81.4705 288.361 84.9209 291.665 87.5449C294.969 90.169 299.181 91.4804 304.3 91.4805C309.418 91.4805 313.63 90.1689 316.935 87.5449C320.239 84.9209 322.685 81.4705 324.272 77.1943C325.86 72.918 326.653 68.2849 326.653 63.2959C326.653 58.307 325.86 53.6582 324.272 49.3496C322.685 45.0409 320.239 41.5579 316.935 38.9014C313.63 36.2449 309.418 34.917 304.3 34.917ZM10.6963 60.2275C10.6963 60.745 10.7095 61.2595 10.7354 61.7705C10.7483 62.0263 10.7649 62.2811 10.7842 62.5352C10.8228 63.043 10.8739 63.5474 10.9375 64.0479C10.9693 64.2982 11.004 64.5475 11.042 64.7959C11.1558 65.5406 11.2973 66.2763 11.4648 67.002C11.5207 67.2439 11.579 67.4849 11.6406 67.7246C11.8256 68.4437 12.0365 69.1524 12.2725 69.8496C12.7442 71.2435 13.316 72.5912 13.9785 73.8848C14.3098 74.5316 14.6642 75.1646 15.04 75.7832C20.3016 84.4428 29.8231 90.2275 40.6963 90.2275H90.6963V83.0391C90.6963 66.4705 77.2648 53.0391 60.6963 53.0391H10.6963V60.2275ZM235.406 34.917C230.839 34.917 226.887 36.0507 223.55 38.3184C220.245 40.5537 217.702 43.4694 215.92 47.0654C214.393 50.1472 213.523 53.4194 213.305 56.8818H255.816C255.816 52.6703 254.974 48.9118 253.289 45.6074C251.637 42.3031 249.272 39.6955 246.194 37.7842C243.149 35.8728 239.553 34.917 235.406 34.917ZM10.6963 43.0391H60.6963C72.6441 43.0391 83.3668 48.2787 90.6963 56.584V40.2275C90.6962 23.6591 77.2648 10.2275 60.6963 10.2275H10.6963V43.0391Z" fill="black"/>
</svg>
