<svg width="101" height="101" viewBox="0 0 101 101" fill="none" xmlns="http://www.w3.org/2000/svg">
<path d="M60.5428 0.227661C82.6342 0.227661 100.543 18.1363 100.543 40.2277V100.229H40.5428L39.5106 100.215C37.4937 100.164 35.514 99.9622 33.5819 99.6232C33.5125 99.611 33.4432 99.5976 33.3739 99.5851C33.113 99.5379 32.8527 99.4899 32.5936 99.4376C32.5688 99.4326 32.5442 99.4261 32.5194 99.421C32.2417 99.3645 31.9649 99.3056 31.6893 99.2433C31.5506 99.2119 31.4125 99.1784 31.2743 99.1456C31.0943 99.1029 30.9143 99.0609 30.7352 99.0157C30.6291 98.989 30.5236 98.9603 30.4178 98.9327C30.2041 98.877 29.9906 98.821 29.7782 98.7618C29.7054 98.7416 29.633 98.72 29.5604 98.6993C29.3239 98.6319 29.0881 98.563 28.8534 98.4913C28.7728 98.4667 28.6926 98.4412 28.6122 98.4161C28.3881 98.3462 28.1646 98.275 27.9423 98.2013C27.8424 98.1682 27.743 98.1336 27.6434 98.0997C27.4452 98.0322 27.2474 97.9642 27.0507 97.8937C26.9392 97.8537 26.8286 97.8115 26.7177 97.7706C26.5301 97.7015 26.3423 97.6335 26.1561 97.5616C26.0106 97.5055 25.8663 97.4466 25.7216 97.3888C25.5843 97.334 25.4469 97.28 25.3104 97.2238C25.1606 97.162 25.012 97.0978 24.8632 97.0343C24.7069 96.9677 24.5506 96.9017 24.3954 96.8331C24.2827 96.7834 24.1706 96.7325 24.0585 96.6818C23.8782 96.6001 23.6983 96.518 23.5194 96.4337C23.423 96.3883 23.3273 96.3412 23.2313 96.295C23.0352 96.2007 22.8397 96.1053 22.6454 96.0079C22.5614 95.9659 22.478 95.9227 22.3944 95.88C22.2079 95.7849 22.0216 95.6899 21.8368 95.5919C21.7203 95.5302 21.605 95.4663 21.4891 95.4034C21.3226 95.313 21.1562 95.2227 20.9911 95.13C20.8979 95.0777 20.8055 95.0239 20.7128 94.9708C20.5297 94.8661 20.3471 94.7609 20.1659 94.6534C20.0688 94.5958 19.9724 94.537 19.8759 94.4786C19.7099 94.3783 19.5442 94.2776 19.3798 94.1749C19.2735 94.1085 19.168 94.0411 19.0624 93.9738C18.9029 93.872 18.7437 93.77 18.5858 93.6661C18.4723 93.5914 18.3597 93.5154 18.2469 93.4396C18.1055 93.3445 17.9642 93.2493 17.8241 93.1525C17.7059 93.0707 17.5888 92.9874 17.4716 92.9044C17.3315 92.8053 17.1914 92.7064 17.0526 92.6056C16.9409 92.5244 16.8304 92.4418 16.7196 92.3595C16.5652 92.2448 16.4113 92.1296 16.2587 92.0128C16.1789 91.9518 16.0997 91.8899 16.0204 91.8282C15.8562 91.7006 15.6923 91.5726 15.5302 91.4425C15.4399 91.3701 15.3502 91.2969 15.2606 91.2238C15.107 91.0983 14.9544 90.9716 14.8026 90.8439C14.718 90.7726 14.6337 90.701 14.5497 90.629C14.3947 90.4964 14.2407 90.3626 14.0878 90.2277C13.996 90.1466 13.9044 90.0654 13.8134 89.9835C13.6896 89.8723 13.5666 89.7603 13.4442 89.6476C13.3284 89.5408 13.2131 89.4334 13.0985 89.3253C12.9786 89.2122 12.8596 89.0981 12.7411 88.9835C12.642 88.8877 12.5433 88.7913 12.4452 88.6945C12.3123 88.5633 12.1807 88.431 12.0497 88.298C11.971 88.2181 11.8923 88.1383 11.8143 88.0577C11.6729 87.9117 11.5327 87.7645 11.3934 87.6163C11.3124 87.5301 11.2316 87.4436 11.1512 87.3566C11.0299 87.2252 10.9095 87.0931 10.7899 86.9601C10.6845 86.8428 10.5795 86.7251 10.4755 86.6066C10.3847 86.5032 10.2946 86.3993 10.205 86.295C10.0899 86.1613 9.97547 86.027 9.86218 85.8917C9.77222 85.7843 9.68345 85.6759 9.5946 85.5675C9.49602 85.4472 9.39786 85.3266 9.30066 85.2052C9.18871 85.0653 9.07776 84.9247 8.96765 84.7833C8.88852 84.6817 8.80949 84.58 8.73132 84.4777C8.61764 84.3288 8.50507 84.179 8.39343 84.0284C8.3198 83.9291 8.24644 83.8296 8.17371 83.7296C8.06475 83.5798 7.95738 83.4288 7.85046 83.2775C7.77133 83.1654 7.69214 83.0534 7.61414 82.9406C7.51729 82.8004 7.42212 82.6591 7.32703 82.5177C7.25082 82.4044 7.17456 82.291 7.09949 82.1769C6.98749 82.0066 6.87691 81.8353 6.76746 81.6632C6.71406 81.5792 6.66009 81.4956 6.6073 81.4113C6.4942 81.2305 6.38359 81.0481 6.27332 80.8654C6.21765 80.7731 6.16224 80.6807 6.1073 80.588C6.00658 80.418 5.90771 80.2469 5.80945 80.0753C5.75077 79.9729 5.69146 79.8707 5.63367 79.7677C5.53143 79.5854 5.43136 79.4019 5.33191 79.2179C5.28337 79.1281 5.23427 79.0386 5.1864 78.9484C5.08538 78.758 4.98657 78.5663 4.88855 78.3741C4.84246 78.2838 4.79627 78.1934 4.75085 78.1027C4.65559 77.9123 4.56288 77.7205 4.47058 77.5284C4.42538 77.4344 4.37932 77.3407 4.33484 77.2462C4.25341 77.0733 4.1746 76.899 4.09558 76.7247C4.04014 76.6024 3.98381 76.4805 3.92957 76.3575C3.84451 76.1647 3.76165 75.9709 3.67957 75.7765C3.64354 75.6912 3.60662 75.6062 3.57117 75.5206C3.48857 75.3212 3.40941 75.1201 3.32996 74.9191C3.28841 74.8139 3.24563 74.7092 3.20496 74.6036C3.12843 74.405 3.05476 74.2051 2.98132 74.005C2.94668 73.9106 2.91078 73.8166 2.87683 73.7218C2.80913 73.5329 2.74449 73.3427 2.67957 73.1525C2.63902 73.0337 2.59695 72.9153 2.5575 72.796C2.47983 72.5612 2.40629 72.3248 2.33289 72.088C2.31256 72.0224 2.29039 71.9574 2.27039 71.8917C2.19485 71.6436 2.12343 71.3939 2.05261 71.1437C2.03775 71.0912 2.02137 71.0391 2.00671 70.9865C1.9479 70.7754 1.89221 70.5632 1.83679 70.3507C1.80793 70.2401 1.77781 70.1297 1.74988 70.0187C1.69661 69.807 1.64741 69.594 1.59753 69.381C1.57481 69.2839 1.55021 69.1873 1.5282 69.09C1.47429 68.8516 1.42451 68.6121 1.37488 68.3722C1.35656 68.2836 1.33695 68.1953 1.31921 68.1066C1.27689 67.8947 1.23806 67.6819 1.1991 67.4689C1.18088 67.3693 1.16091 67.2699 1.14343 67.17C0.80637 65.2439 0.606466 63.2703 0.555542 61.2599L0.542847 60.2277V0.227661H60.5428ZM10.5428 60.2277C10.5429 60.7451 10.556 61.2596 10.5819 61.7706C10.5949 62.0264 10.6114 62.2813 10.6307 62.5353C10.6694 63.0431 10.7204 63.5475 10.7841 64.048C10.8159 64.2983 10.8506 64.5477 10.8885 64.796C11.0023 65.5408 11.1439 66.2764 11.3114 67.0021C11.3673 67.244 11.4255 67.485 11.4872 67.7247C11.6722 68.4438 11.8831 69.1526 12.119 69.8497C12.5907 71.2436 13.1625 72.5914 13.8251 73.8849C14.1564 74.5317 14.5108 75.1648 14.8866 75.7833C20.1482 84.4429 29.6697 90.2276 40.5428 90.2277H90.5428V83.0392C90.5428 66.4706 77.1114 53.0392 60.5428 53.0392H10.5428V60.2277ZM10.5428 43.0392H60.5428C72.4907 43.0392 83.2134 48.2788 90.5428 56.5841V40.2277C90.5428 23.6592 77.1113 10.2277 60.5428 10.2277H10.5428V43.0392Z" fill="white"/>
</svg>
