<svg width="573" height="102" viewBox="0 0 573 102" fill="none" xmlns="http://www.w3.org/2000/svg">
<path d="M483.242 24.6143C485.639 24.6143 488.393 24.9062 491.503 25.4893C494.645 26.04 497.674 27.1901 500.59 28.9395C503.538 30.6888 505.984 33.3292 507.928 36.8604C509.871 40.3915 510.844 45.1214 510.844 51.0498V100.228H499.375V90.1201H498.792C498.014 91.7399 496.718 93.4728 494.904 95.3193C493.09 97.1659 490.677 98.7374 487.664 100.033C484.651 101.329 480.974 101.978 476.633 101.978C471.903 101.978 467.61 101.086 463.755 99.3047C459.9 97.4905 456.839 94.882 454.571 91.4805C452.304 88.0465 451.169 83.8995 451.169 79.04C451.169 74.7641 452.012 71.298 453.696 68.6416C455.381 65.9527 457.633 63.8468 460.451 62.3242C463.27 60.8016 466.38 59.667 469.781 58.9219C473.215 58.1444 476.666 57.5297 480.132 57.0762C484.667 56.493 488.345 56.0552 491.163 55.7637C494.014 55.4397 496.087 54.9052 497.383 54.1602C498.711 53.415 499.375 52.119 499.375 50.2725V49.8838C499.375 45.0891 498.063 41.3635 495.438 38.707C492.847 36.0508 488.911 34.7227 483.631 34.7227C478.156 34.7227 473.863 35.921 470.753 38.3184C467.643 40.7157 465.456 43.2748 464.192 45.9961L453.308 42.1084C455.251 37.573 457.843 34.0415 461.083 31.5146C464.355 28.9555 467.918 27.1742 471.773 26.1699C475.661 25.1332 479.484 24.6143 483.242 24.6143ZM237.406 24.6143C241.294 24.6143 245.133 25.2627 248.924 26.5586C252.714 27.8545 256.164 29.9604 259.274 32.876C262.384 35.7592 264.862 39.5818 266.709 44.3438C268.556 49.106 269.479 54.9703 269.479 61.9355V66.7949H215.275C215.44 71.7607 216.401 76.021 218.163 79.5752C220.139 83.4627 222.877 86.4268 226.376 88.4678C229.875 90.4762 233.941 91.4805 238.573 91.4805C241.586 91.4804 244.307 91.059 246.736 90.2168C249.198 89.3421 251.321 88.047 253.103 86.3301C254.884 84.5807 256.262 82.41 257.233 79.8184L268.312 82.9277C267.146 86.6856 265.186 89.99 262.433 92.8408C259.679 95.6593 256.277 97.8628 252.228 99.4502C248.178 101.005 243.627 101.782 238.573 101.782C231.381 101.782 225.177 100.195 219.961 97.0205C214.778 93.8133 210.776 89.3425 207.958 83.6084C205.172 77.8419 203.779 71.1357 203.779 63.4902C203.779 55.8449 205.172 49.1066 207.958 43.2754C210.776 37.4118 214.696 32.8433 219.718 29.5713C224.772 26.2669 230.668 24.6143 237.406 24.6143ZM306.3 24.6143C313.038 24.6143 318.934 26.2185 323.988 29.4258C329.074 32.633 333.027 37.1357 335.846 42.9346C338.697 48.7335 340.122 55.5208 340.122 63.2959C340.122 71.006 338.696 77.7443 335.846 83.5107C333.027 89.2773 329.074 93.7644 323.988 96.9717C318.934 100.179 313.038 101.782 306.3 101.782C299.561 101.782 293.649 100.179 288.562 96.9717C283.509 93.7645 279.557 89.2771 276.706 83.5107C273.888 77.7443 272.479 71.0061 272.479 63.2959C272.479 55.5208 273.888 48.7335 276.706 42.9346C279.557 37.1359 283.509 32.633 288.562 29.4258C293.649 26.2186 299.561 24.6143 306.3 24.6143ZM532.297 80.79C532.297 84.4183 532.702 86.9611 533.512 88.4189C534.322 89.8768 535.99 90.5736 538.517 90.5088C539.877 90.444 540.881 90.3464 541.529 90.2168C542.21 90.0548 542.825 89.8934 543.376 89.7314L545.709 99.6445C544.705 99.9361 543.441 100.195 541.918 100.422C540.395 100.681 538.808 100.811 537.156 100.811C531.714 100.811 527.631 99.3203 524.91 96.3398C522.189 93.3595 520.828 89.2131 520.828 83.9004V0.706055H532.297V80.79ZM558.767 80.79C558.767 84.4181 559.172 86.9611 559.981 88.4189C560.791 89.8768 562.46 90.5736 564.987 90.5088C566.348 90.444 567.352 90.3464 568 90.2168C568.68 90.0548 569.296 89.8934 569.847 89.7314L572.179 99.6445C571.174 99.9361 569.911 100.195 568.389 100.422C566.866 100.681 565.278 100.811 563.626 100.811C558.184 100.81 554.102 99.3202 551.381 96.3398C548.66 93.3595 547.299 89.2132 547.299 83.9004V0.706055H558.767V80.79ZM60.6963 0.227539C82.7876 0.227539 100.696 18.1362 100.696 40.2275V100.229H40.6963L39.6641 100.215C37.6471 100.164 35.6675 99.9621 33.7354 99.623C33.6659 99.6109 33.5967 99.5975 33.5273 99.585C33.2665 99.5378 33.0062 99.4897 32.7471 99.4375C32.7222 99.4325 32.6977 99.426 32.6729 99.4209C32.3951 99.3643 32.1184 99.3054 31.8428 99.2432C31.704 99.2118 31.5659 99.1783 31.4277 99.1455C31.2477 99.1028 31.0677 99.0608 30.8887 99.0156C30.7826 98.9889 30.677 98.9602 30.5713 98.9326C30.3575 98.8768 30.144 98.8209 29.9316 98.7617C29.8589 98.7414 29.7865 98.7199 29.7139 98.6992C29.4773 98.6318 29.2416 98.5628 29.0068 98.4912C28.9262 98.4666 28.846 98.4411 28.7656 98.416C28.5415 98.3461 28.3181 98.2749 28.0957 98.2012C27.9958 98.168 27.8964 98.1335 27.7969 98.0996C27.5987 98.0321 27.4009 97.9641 27.2041 97.8936C27.0926 97.8536 26.9821 97.8114 26.8711 97.7705C26.6835 97.7014 26.4958 97.6333 26.3096 97.5615C26.164 97.5054 26.0197 97.4464 25.875 97.3887C25.7378 97.3339 25.6003 97.2799 25.4639 97.2236C25.3141 97.1619 25.1655 97.0977 25.0166 97.0342C24.8604 96.9675 24.704 96.9016 24.5488 96.833C24.4362 96.7832 24.324 96.7324 24.2119 96.6816C24.0316 96.6 23.8517 96.5178 23.6729 96.4336C23.5764 96.3882 23.4808 96.3411 23.3848 96.2949C23.1886 96.2006 22.9932 96.1052 22.7988 96.0078C22.7149 95.9657 22.6315 95.9225 22.5479 95.8799C22.3614 95.7848 22.175 95.6897 21.9902 95.5918C21.8737 95.53 21.7584 95.4662 21.6426 95.4033C21.476 95.3129 21.3096 95.2226 21.1445 95.1299C21.0513 95.0776 20.959 95.0238 20.8662 94.9707C20.6832 94.866 20.5005 94.7608 20.3193 94.6533C20.2222 94.5957 20.1259 94.5369 20.0293 94.4785C19.8633 94.3781 19.6976 94.2775 19.5332 94.1748C19.4269 94.1084 19.3214 94.041 19.2158 93.9736C19.0564 93.8719 18.8972 93.7699 18.7393 93.666C18.6257 93.5913 18.5131 93.5153 18.4004 93.4395C18.259 93.3443 18.1177 93.2492 17.9775 93.1523C17.8593 93.0706 17.7423 92.9873 17.625 92.9043C17.4849 92.8052 17.3448 92.7063 17.2061 92.6055C17.0944 92.5243 16.9838 92.4417 16.873 92.3594C16.7187 92.2447 16.5648 92.1295 16.4121 92.0127C16.3323 91.9516 16.2532 91.8898 16.1738 91.8281C16.0096 91.7005 15.8458 91.5725 15.6836 91.4424C15.5933 91.37 15.5037 91.2968 15.4141 91.2236C15.2604 91.0981 15.1078 90.9715 14.9561 90.8438C14.8714 90.7725 14.7872 90.7008 14.7031 90.6289C14.5481 90.4963 14.3941 90.3625 14.2412 90.2275C14.1494 90.1465 14.0579 90.0652 13.9668 89.9834C13.8431 89.8722 13.72 89.7602 13.5977 89.6475C13.4818 89.5407 13.3665 89.4333 13.252 89.3252C13.132 89.2121 13.013 89.098 12.8945 88.9834C12.7954 88.8875 12.6968 88.7912 12.5986 88.6943C12.4658 88.5632 12.3341 88.4308 12.2031 88.2979C12.1244 88.218 12.0458 88.1381 11.9678 88.0576C11.8263 87.9116 11.6861 87.7644 11.5469 87.6162C11.4658 87.5299 11.385 87.4434 11.3047 87.3564C11.1834 87.2251 11.0629 87.0929 10.9434 86.96C10.8379 86.8427 10.733 86.725 10.6289 86.6064C10.5382 86.5031 10.4481 86.3992 10.3584 86.2949C10.2434 86.1612 10.1289 86.0269 10.0156 85.8916C9.92567 85.7842 9.83689 85.6758 9.74805 85.5674C9.64946 85.4471 9.55131 85.3265 9.4541 85.2051C9.34215 85.0652 9.2312 84.9246 9.12109 84.7832C9.04197 84.6816 8.96293 84.5799 8.88477 84.4775C8.77108 84.3286 8.65851 84.1789 8.54688 84.0283C8.47324 83.929 8.39988 83.8295 8.32715 83.7295C8.21819 83.5797 8.11082 83.4287 8.00391 83.2773C7.92477 83.1653 7.84558 83.0533 7.76758 82.9404C7.67074 82.8003 7.57556 82.659 7.48047 82.5176C7.40426 82.4042 7.328 82.2909 7.25293 82.1768C7.14093 82.0065 7.03035 81.8352 6.9209 81.6631C6.8675 81.5791 6.81353 81.4955 6.76074 81.4111C6.64765 81.2303 6.53703 81.0479 6.42676 80.8652C6.37109 80.773 6.31568 80.6806 6.26074 80.5879C6.16002 80.4179 6.06115 80.2468 5.96289 80.0752C5.90421 79.9727 5.8449 79.8706 5.78711 79.7676C5.68487 79.5853 5.5848 79.4018 5.48535 79.2178C5.43682 79.128 5.38771 79.0385 5.33984 78.9482C5.23883 78.7579 5.14001 78.5662 5.04199 78.374C4.9959 78.2836 4.94972 78.1933 4.9043 78.1025C4.80903 77.9122 4.71632 77.7204 4.62402 77.5283C4.57882 77.4343 4.53276 77.3406 4.48828 77.2461C4.40685 77.0731 4.32804 76.8989 4.24902 76.7246C4.19358 76.6023 4.13725 76.4804 4.08301 76.3574C3.99795 76.1646 3.9151 75.9707 3.83301 75.7764C3.79698 75.6911 3.76006 75.6061 3.72461 75.5205C3.64201 75.321 3.56285 75.12 3.4834 74.9189C3.44185 74.8138 3.39908 74.7091 3.3584 74.6035C3.28187 74.4049 3.2082 74.205 3.13477 74.0049C3.10012 73.9105 3.06423 73.8164 3.03027 73.7217C2.96258 73.5327 2.89793 73.3426 2.83301 73.1523C2.79247 73.0335 2.75039 72.9152 2.71094 72.7959C2.63328 72.5611 2.55973 72.3246 2.48633 72.0879C2.466 72.0223 2.44383 71.9573 2.42383 71.8916C2.34829 71.6434 2.27687 71.3937 2.20605 71.1436C2.19119 71.091 2.17481 71.0389 2.16016 70.9863C2.10135 70.7752 2.04565 70.5631 1.99023 70.3506C1.96138 70.2399 1.93125 70.1296 1.90332 70.0186C1.85005 69.8068 1.80085 69.5939 1.75098 69.3809C1.72826 69.2838 1.70365 69.1872 1.68164 69.0898C1.62773 68.8515 1.57795 68.612 1.52832 68.3721C1.51 68.2835 1.49039 68.1952 1.47266 68.1064C1.43033 67.8946 1.3915 67.6818 1.35254 67.4688C1.33432 67.3691 1.31435 67.2698 1.29688 67.1699C0.959812 65.2438 0.759909 63.2702 0.708984 61.2598L0.696289 60.2275V0.227539H60.6963ZM182.836 79.04H183.809V0.706055H195.665V100.228H184.003L129.771 22.0879H128.799V100.228H116.748V0.706055H128.41L182.836 79.04ZM421.905 24.6143C428.579 24.6144 434.037 26.7048 438.281 30.8838C442.525 35.0305 444.647 41.4933 444.647 50.2725V100.228H433.179V50.2725C433.179 44.7651 431.672 40.8288 428.659 38.4639C425.646 36.0991 422.099 34.9171 418.018 34.917C412.77 34.917 408.704 36.504 405.82 39.6787C402.937 42.8211 401.495 46.8059 401.495 51.6328V100.228H389.832V49.1064C389.832 44.8625 388.456 41.4442 385.702 38.8525C382.948 36.2284 379.401 34.917 375.06 34.917C372.079 34.917 369.293 35.7105 366.701 37.2979C364.142 38.8852 362.069 41.088 360.481 43.9062C358.926 46.6923 358.148 49.9164 358.148 53.5771V100.228H346.681V25.5869H357.76V37.249H358.732C360.287 33.2646 362.798 30.1707 366.264 27.9678C369.73 25.7324 373.893 24.6143 378.753 24.6143C383.677 24.6143 387.775 25.7325 391.047 27.9678C394.351 30.1707 396.927 33.2644 398.773 37.249H399.552C401.463 33.394 404.33 30.3321 408.152 28.0645C411.975 25.7643 416.56 24.6143 421.905 24.6143ZM499.375 62.7129C498.889 63.296 497.82 63.8305 496.168 64.3164C494.548 64.7699 492.669 65.1749 490.531 65.5312C488.425 65.8552 486.368 66.1471 484.359 66.4062C482.383 66.633 480.78 66.8273 479.549 66.9893C476.568 67.378 473.782 68.0091 471.19 68.8838C468.631 69.7261 466.557 71.0066 464.97 72.7236C463.415 74.4082 462.638 76.7086 462.638 79.624C462.638 83.6085 464.112 86.6212 467.06 88.6621C470.04 90.6706 473.814 91.6747 478.382 91.6748C482.917 91.6748 486.741 90.7838 489.851 89.002C492.993 87.2202 495.358 84.92 496.945 82.1016C498.565 79.2832 499.375 76.3189 499.375 73.209V62.7129ZM306.3 34.917C301.181 34.917 296.969 36.2449 293.665 38.9014C290.361 41.5579 287.915 45.041 286.327 49.3496C284.74 53.6582 283.946 58.3071 283.946 63.2959C283.946 68.2849 284.74 72.918 286.327 77.1943C287.915 81.4705 290.361 84.9209 293.665 87.5449C296.969 90.169 301.181 91.4804 306.3 91.4805C311.418 91.4805 315.63 90.1689 318.935 87.5449C322.239 84.9209 324.685 81.4705 326.272 77.1943C327.86 72.918 328.653 68.2849 328.653 63.2959C328.653 58.307 327.86 53.6582 326.272 49.3496C324.685 45.0409 322.239 41.5579 318.935 38.9014C315.63 36.2449 311.418 34.917 306.3 34.917ZM10.6963 60.2275C10.6963 60.745 10.7095 61.2595 10.7354 61.7705C10.7483 62.0263 10.7649 62.2811 10.7842 62.5352C10.8228 63.043 10.8739 63.5474 10.9375 64.0479C10.9693 64.2982 11.004 64.5475 11.042 64.7959C11.1558 65.5406 11.2973 66.2763 11.4648 67.002C11.5207 67.2439 11.579 67.4849 11.6406 67.7246C11.8256 68.4437 12.0365 69.1524 12.2725 69.8496C12.7442 71.2435 13.316 72.5912 13.9785 73.8848C14.3098 74.5316 14.6642 75.1646 15.04 75.7832C20.3016 84.4428 29.8231 90.2275 40.6963 90.2275H90.6963V83.0391C90.6963 66.4705 77.2648 53.0391 60.6963 53.0391H10.6963V60.2275ZM237.406 34.917C232.839 34.917 228.887 36.0507 225.55 38.3184C222.245 40.5537 219.702 43.4694 217.92 47.0654C216.393 50.1472 215.523 53.4194 215.305 56.8818H257.816C257.816 52.6703 256.974 48.9118 255.289 45.6074C253.637 42.3031 251.272 39.6955 248.194 37.7842C245.149 35.8728 241.553 34.917 237.406 34.917ZM10.6963 43.0391H60.6963C72.6441 43.0391 83.3668 48.2787 90.6963 56.584V40.2275C90.6962 23.6591 77.2648 10.2275 60.6963 10.2275H10.6963V43.0391Z" fill="white"/>
</svg>
