<svg width="100" height="100" viewBox="0 0 100 100" fill="none" xmlns="http://www.w3.org/2000/svg">
<path d="M100 50C100 77.6142 77.6142 100 50 100C22.3858 100 0 77.6142 0 50C0 22.3858 22.3858 0 50 0C77.6142 0 100 22.3858 100 50Z" fill="black"/>
<path fill-rule="evenodd" clip-rule="evenodd" d="M56.3159 21.3833C68.6896 21.6969 78.6244 31.8256 78.6245 44.2749V78.6245H44.2749L43.6841 78.6167C40.6398 78.5396 37.7433 77.8681 35.106 76.7144C34.7763 76.5701 34.4507 76.4183 34.1294 76.2593C33.4866 75.941 32.8603 75.5943 32.2534 75.2192C31.9501 75.0318 31.6516 74.8372 31.3579 74.6362C31.2111 74.5358 31.0657 74.4334 30.9214 74.3296C30.1994 73.8105 29.5087 73.2505 28.853 72.6528C28.5906 72.4136 28.3336 72.1685 28.0825 71.9175C27.8316 71.6666 27.5872 71.4092 27.3481 71.147C27.1091 70.8848 26.8757 70.6174 26.6489 70.3442C26.1951 69.7977 25.766 69.2298 25.3638 68.6421C24.2581 67.0264 23.3541 65.2616 22.688 63.3843L22.5122 62.8696C22.4556 62.697 22.4008 62.5235 22.3481 62.3491C22.0327 61.3036 21.7905 60.2263 21.6265 59.1235C21.4897 58.2043 21.4074 57.2674 21.3833 56.3159L21.3755 55.7251V21.3755H55.7251L56.3159 21.3833ZM27.1001 55.7251C27.1001 57.059 27.2527 58.3575 27.5405 59.604C27.5725 59.7423 27.6059 59.8801 27.6411 60.0171C27.7823 60.5659 27.9494 61.1042 28.1421 61.6304C28.1903 61.762 28.2402 61.8928 28.2915 62.0229C28.4452 62.4127 28.6136 62.7952 28.7944 63.1704C28.8547 63.2955 28.9158 63.4201 28.979 63.5435C29.2952 64.1608 29.6477 64.7564 30.0337 65.3276C30.1879 65.5559 30.3475 65.7802 30.5122 66.0005C30.677 66.2208 30.847 66.437 31.022 66.6489C31.1096 66.7551 31.1984 66.8603 31.2886 66.9644L31.562 67.2729C33.5026 69.4078 35.9739 71.0515 38.7671 71.9966C38.8998 72.0415 39.0333 72.0847 39.1675 72.1265C39.7055 72.2938 40.2547 72.4359 40.814 72.5503C41.0934 72.6075 41.3754 72.6573 41.6597 72.7007C41.8017 72.7224 41.9442 72.743 42.0874 72.7612C42.6604 72.8341 43.2423 72.8781 43.8315 72.8931C43.9789 72.8968 44.1267 72.8989 44.2749 72.8989H72.8989V68.7837C72.8989 59.2986 65.2101 51.6091 55.7251 51.6089H27.1001V55.7251ZM27.1001 45.8843H55.7251L56.3159 45.8921C62.9171 46.0594 68.8241 49.02 72.8989 53.6362V44.2749C72.8988 34.7898 65.2101 27.1003 55.7251 27.1001H27.1001V45.8843Z" fill="white"/>
</svg>
